<?xml version="1.0" ?>
<svg fill="none" height="74" viewBox="0 0 101 74" width="101" xmlns="http://www.w3.org/2000/svg">
	<path d="M40.9841 35.0133C39.6857 36.4329 38.7779 44.4794 40.4381 49.1062C37.1324 47.4226 33.5117 40.882 33.7054 33.7452C31.9839 34.8526 29.4211 48.3358 32.8068 56.9059C27.8593 55.332 22.5626 41.0665 25.721 30.0644C16.0591 41.5818 23.1063 59.943 24.9355 64.7083C9.59958 53.3191 15.5228 24.3991 15.5228 24.3991C4.39988 42.3138 10.4029 57.9683 14.6109 68.942C15.2642 70.6456 15.8742 72.2363 16.3701 73.7052C12.1785 70.7879 -18.2413 34.3469 19.3799 0.413086L60.7038 40.1295C61.9474 38.3317 62.8234 29.5126 61.2742 25.0324C64.5602 26.7542 68.1046 33.3363 67.828 40.4704C69.5623 39.383 72.2815 25.9304 68.9956 17.3217C73.9245 18.9528 79.0551 33.2786 75.7691 44.2434C85.5642 32.8387 78.8954 14.843 77.1217 10.0568C77.0607 9.89231 77.0056 9.74339 76.957 9.61089C92.1596 21.1771 85.9009 50.0265 85.9009 50.0265C97.2311 32.2418 91.4104 16.5188 87.33 5.49706C86.6966 3.78607 86.1051 2.18838 85.6263 0.713851C89.7838 3.67953 119.778 40.4704 81.7655 73.9662L40.9841 35.0133Z" fill="#BB86FC"/>
</svg>