<?xml version="1.0" ?>
<svg fill="none" height="101" viewBox="0 0 101 101" width="101" xmlns="http://www.w3.org/2000/svg">
	<style>
		@media (prefers-color-scheme: dark) {
		.a { fill: #f5f5f5 }
		}
    </style>
	<path class="a" clip-rule="evenodd" d="M0.0721436 3.09626C0.0721436 1.43775 1.42886 0.0932617 3.10245 0.0932617H97.0418C98.7154 0.0932617 100.072 1.43775 100.072 3.09626V97.0903C100.072 98.7488 98.7154 100.093 97.0418 100.093H3.10245C1.42886 100.093 0.0721436 98.7488 0.0721436 97.0903V3.09626ZM15.2237 12.1053C13.5501 12.1053 12.1934 13.4498 12.1934 15.1083V85.0782C12.1934 86.7368 13.5501 88.0813 15.2237 88.0813H84.9206C86.5942 88.0813 87.9509 86.7368 87.9509 85.0782V15.1083C87.9509 13.4498 86.5942 12.1053 84.9206 12.1053H15.2237Z" fill="#141414" fill-rule="evenodd"/>
	<path class="a" clip-rule="evenodd" d="M22.4964 19.3125C21.827 19.3125 21.2843 19.8503 21.2843 20.5137V42.7359C21.2843 43.3993 21.827 43.9371 22.4964 43.9371H42.1934C42.8628 43.9371 43.4055 43.3993 43.4055 42.7359V20.5137C43.4055 19.8503 42.8628 19.3125 42.1934 19.3125H22.4964ZM28.557 37.9311C27.8876 37.9311 27.3449 37.3933 27.3449 36.7299V26.5197C27.3449 25.8563 27.8876 25.3185 28.557 25.3185H36.1327C36.8022 25.3185 37.3449 25.8563 37.3449 26.5197V36.7299C37.3449 37.3933 36.8022 37.9311 36.1327 37.9311H28.557Z" fill="#141414" fill-rule="evenodd"/>
	<path class="a" clip-rule="evenodd" d="M57.6479 56.5497C56.9785 56.5497 56.4358 57.0875 56.4358 57.7509V79.9731C56.4358 80.6365 56.9785 81.1743 57.6479 81.1743H77.3449C78.0143 81.1743 78.557 80.6365 78.557 79.9731V57.7509C78.557 57.0875 78.0143 56.5497 77.3449 56.5497H57.6479ZM63.7085 75.1683C63.0391 75.1683 62.4964 74.6305 62.4964 73.9671V63.7569C62.4964 63.0935 63.0391 62.5557 63.7085 62.5557H71.2843C71.9537 62.5557 72.4964 63.0935 72.4964 63.7569V73.9671C72.4964 74.6305 71.9537 75.1683 71.2843 75.1683H63.7085Z" fill="#141414" fill-rule="evenodd"/>
	<path class="a" d="M64.6176 26.5197C64.6176 25.8563 64.0749 25.3185 63.4055 25.3185H60.0721C59.4027 25.3185 58.86 24.7807 58.86 24.1173V20.5137C58.86 19.8503 59.4027 19.3125 60.0721 19.3125H69.4661C70.1355 19.3125 70.6782 19.8503 70.6782 20.5137V36.7299C70.6782 37.3933 71.2209 37.9311 71.8903 37.9311H74.6176C75.287 37.9311 75.8297 38.4689 75.8297 39.1323V42.7359C75.8297 43.3993 75.287 43.9371 74.6176 43.9371H60.0721C59.4027 43.9371 58.86 43.3993 58.86 42.7359V39.1323C58.86 38.4689 59.4027 37.9311 60.0721 37.9311H63.4055C64.0749 37.9311 64.6176 37.3933 64.6176 36.7299V26.5197Z" fill="#141414"/>
	<path class="a" d="M24.3146 61.3545C24.3146 62.0179 24.8573 62.5557 25.5267 62.5557H28.86C29.5295 62.5557 30.0721 63.0935 30.0721 63.7569V73.9671C30.0721 74.6305 29.5295 75.1683 28.86 75.1683H25.5267C24.8573 75.1683 24.3146 75.7061 24.3146 76.3695V79.9731C24.3146 80.6365 24.8573 81.1743 25.5267 81.1743H40.0721C40.7416 81.1743 41.2843 80.6365 41.2843 79.9731V76.3695C41.2843 75.7061 40.7416 75.1683 40.0721 75.1683H37.3449C36.6754 75.1683 36.1327 74.6305 36.1327 73.9671V57.7509C36.1327 57.0875 35.5901 56.5497 34.9206 56.5497H25.5267C24.8573 56.5497 24.3146 57.0875 24.3146 57.7509V61.3545Z" fill="#141414"/>
</svg>